<svg width="1440" height="1304" viewBox="0 0 1440 1304" fill="none" xmlns="http://www.w3.org/2000/svg">
<g filter="url(#filter0_f)">
<circle cx="1247.49" cy="590.1" r="374.412" transform="rotate(-105 1247.49 590.1)" fill="#6F42D0"/>
</g>
<g filter="url(#filter1_f)">
<circle cx="1374.06" cy="251.217" r="309.748" transform="rotate(-105 1374.06 251.217)" fill="#4EC5DF"/>
</g>
<g filter="url(#filter2_f)">
<ellipse cx="1633.88" cy="584.168" rx="209.958" ry="374.412" transform="rotate(-140.613 1633.88 584.168)" fill="#EB446C"/>
</g>
<g filter="url(#filter3_f)">
<ellipse cx="993.1" cy="275.705" rx="145.013" ry="258.598" transform="rotate(-73.5801 993.1 275.705)" fill="#C646E7"/>
</g>
<mask id="mask0" mask-type="alpha" maskUnits="userSpaceOnUse" x="887" y="0" width="947" height="1261">
<path d="M1388.8 0H1833C1833 0 1715.91 666.471 1452 982C1350.42 1103.45 1312.52 1278.83 1155.5 1258.5C1070.87 1247.54 1008.79 1219.01 970 1143C935.833 1076.04 983.513 1024.45 970 950.5C954.613 866.291 884.252 833.049 887.299 747.5C891.516 629.112 974.591 573.556 1068.2 504C1174.71 424.858 1354.79 539.743 1388.8 407C1412.15 315.843 1300.08 275.187 1307.21 181.055C1313.12 103.002 1388.8 0 1388.8 0Z" fill="#1A1132"/>
</mask>
<g mask="url(#mask0)">
<path d="M-219.401 -19.6157H1712.76V1268.49H-219.401V-19.6157Z" fill="url(#paint0_radial)"/>
<path d="M1120.95 329.203C1119.71 332.229 1118.14 335.107 1116.26 337.782C1113.59 339.65 1110.72 341.222 1107.71 342.471C1110.72 343.719 1113.59 345.291 1116.26 347.159C1118.14 349.834 1119.71 352.712 1120.95 355.738C1122.2 352.712 1123.78 349.835 1125.66 347.159C1128.34 345.291 1131.21 343.719 1134.22 342.471C1131.21 341.222 1128.34 339.65 1125.66 337.782C1123.78 335.106 1122.2 332.229 1120.95 329.203Z" fill="white"/>
<path d="M1089.93 180.761C1089.93 180.761 1085.01 192.174 1082.2 195.059C1079.4 197.945 1067.91 202.788 1067.91 202.788C1067.91 202.788 1079.32 207.708 1082.2 210.516C1085.09 213.325 1089.93 224.814 1089.93 224.814C1089.93 224.814 1094.88 213.402 1097.66 210.516C1100.44 207.631 1111.96 202.788 1111.96 202.788C1111.96 202.788 1100.55 197.842 1097.66 195.059C1094.78 192.277 1089.93 180.761 1089.93 180.761Z" fill="white"/>
<path d="M1073.73 443.252C1073.73 443.252 1068.78 454.665 1066 457.524C1063.22 460.384 1051.7 465.253 1051.7 465.253C1051.7 465.253 1063.14 470.199 1066 472.981C1068.86 475.764 1073.73 487.279 1073.73 487.279C1073.73 487.279 1078.65 475.867 1081.46 472.981C1084.26 470.096 1095.75 465.253 1095.75 465.253C1095.75 465.253 1084.34 460.306 1081.46 457.524C1078.57 454.742 1073.73 443.252 1073.73 443.252Z" fill="white"/>
<path d="M929.151 1011.77C928.254 1013.96 927.113 1016.04 925.751 1017.98C923.803 1019.34 921.713 1020.48 919.516 1021.38C921.712 1022.29 923.803 1023.44 925.751 1024.8C927.113 1026.74 928.254 1028.82 929.151 1031.01C930.049 1028.82 931.189 1026.74 932.552 1024.8C934.5 1023.44 936.59 1022.29 938.786 1021.38C936.59 1020.48 934.499 1019.34 932.552 1017.98C931.189 1016.04 930.049 1013.96 929.151 1011.77Z" fill="white"/>
<path d="M902.462 786.015C901.553 788.2 900.413 790.281 899.061 792.223C897.114 793.582 895.023 794.722 892.827 795.624C895.018 796.536 897.108 797.676 899.061 799.024C900.41 800.978 901.549 803.067 902.462 805.259C903.363 803.062 904.504 800.972 905.862 799.024C907.804 797.672 909.886 796.532 912.071 795.624C909.719 795.105 907.565 793.925 905.863 792.223C904.16 790.52 902.98 788.366 902.462 786.015Z" fill="white"/>
<path d="M987.992 850.215C986.48 853.844 984.58 857.3 982.324 860.52C979.104 862.776 975.649 864.676 972.019 866.187C975.653 867.7 979.109 869.609 982.324 871.881C984.58 875.101 986.48 878.556 987.992 882.186C989.503 878.556 991.404 875.101 993.66 871.881C996.877 869.614 1000.33 867.705 1003.96 866.187C1000.34 864.67 996.883 862.77 993.66 860.52C991.404 857.3 989.503 853.844 987.992 850.215Z" fill="white"/>
<path opacity="0.5" d="M936.674 166.977C935.162 163.305 934.056 159.478 933.376 155.565C934.067 151.676 935.182 147.875 936.7 144.229C933.312 146.398 929.374 147.551 925.352 147.551C921.329 147.551 917.391 146.398 914.003 144.229C915.521 147.875 916.636 151.676 917.327 155.565C916.635 159.461 915.52 163.271 914.003 166.926C917.391 164.757 921.329 163.605 925.352 163.605C929.374 163.605 933.312 164.757 936.7 166.926L936.674 166.977Z" fill="white"/>
<path opacity="0.5" d="M1124.81 1012.1C1123.56 1009.09 1122.63 1005.94 1122.06 1002.73C1122.63 999.51 1123.56 996.365 1124.81 993.35C1122.02 995.148 1118.76 996.104 1115.44 996.104C1112.11 996.104 1108.86 995.148 1106.06 993.35C1107.32 996.365 1108.24 999.51 1108.82 1002.73C1108.24 1005.94 1107.32 1009.09 1106.06 1012.1C1108.86 1010.32 1112.12 1009.37 1115.44 1009.37C1118.76 1009.37 1122.01 1010.32 1124.81 1012.1Z" fill="white"/>
<path d="M1370.89 1206.04C1369.64 1203.03 1368.71 1199.88 1368.14 1196.67C1368.71 1193.45 1369.64 1190.3 1370.89 1187.29C1368.1 1189.09 1364.84 1190.04 1361.52 1190.04C1358.19 1190.04 1354.94 1189.09 1352.14 1187.29C1353.39 1190.31 1354.3 1193.45 1354.87 1196.67C1354.3 1199.88 1353.39 1203.03 1352.14 1206.04C1354.94 1204.26 1358.19 1203.31 1361.52 1203.31C1364.84 1203.31 1368.09 1204.26 1370.89 1206.04Z" fill="white"/>
<path d="M1420.92 622.143C1420.92 622.143 1416.36 610.576 1416.36 606.506C1416.36 602.435 1420.92 590.868 1420.92 590.868C1420.92 590.868 1409.38 595.454 1405.31 595.454C1401.24 595.454 1389.67 590.868 1389.67 590.868C1389.67 590.868 1394.23 602.435 1394.23 606.506C1394.23 610.576 1389.67 622.143 1389.67 622.143C1389.67 622.143 1401.22 617.558 1405.31 617.558C1409.41 617.558 1420.92 622.143 1420.92 622.143Z" fill="white"/>
<path d="M1224.93 1226.91C1224.93 1226.91 1220.34 1215.34 1220.34 1211.27C1220.34 1207.2 1224.93 1195.63 1224.93 1195.63C1224.93 1195.63 1213.36 1200.22 1209.29 1200.22C1205.22 1200.22 1193.65 1195.63 1193.65 1195.63C1193.65 1195.63 1198.21 1207.2 1198.21 1211.27C1198.21 1215.34 1193.65 1226.91 1193.65 1226.91C1193.65 1226.91 1205.19 1222.32 1209.29 1222.32C1213.38 1222.32 1224.93 1226.91 1224.93 1226.91Z" fill="white"/>
<path style="mix-blend-mode:screen" opacity="0.5" d="M1141.28 426.892C1139.81 426.897 1138.37 426.466 1137.15 425.654C1135.92 424.842 1134.97 423.685 1134.4 422.33C1133.84 420.975 1133.69 419.482 1133.97 418.041C1134.25 416.6 1134.96 415.276 1135.99 414.235C1137.03 413.195 1138.35 412.486 1139.79 412.198C1141.23 411.909 1142.73 412.055 1144.08 412.616C1145.44 413.176 1146.6 414.127 1147.42 415.348C1148.23 416.569 1148.67 418.004 1148.67 419.473C1148.67 421.436 1147.89 423.319 1146.51 424.71C1145.12 426.101 1143.24 426.885 1141.28 426.892Z" fill="url(#paint1_radial)"/>
<path style="mix-blend-mode:screen" opacity="0.5" d="M1261.61 21.4227C1260.92 19.7485 1260.06 18.1511 1259.03 16.6567C1257.54 15.634 1255.94 14.7705 1254.27 14.0805C1255.94 13.3904 1257.54 12.527 1259.03 11.5043C1260.06 10.0131 1260.93 8.41518 1261.61 6.73828C1262.3 8.41518 1263.16 10.0131 1264.19 11.5043C1265.68 12.5323 1267.28 13.3961 1268.95 14.0805C1267.28 14.7649 1265.68 15.6286 1264.19 16.6567C1263.16 18.1511 1262.3 19.7485 1261.61 21.4227Z" fill="url(#paint2_radial)"/>
<path style="mix-blend-mode:screen" opacity="0.5" d="M1058.12 162.985C1057.43 161.308 1056.57 159.71 1055.54 158.219C1054.05 157.191 1052.45 156.327 1050.77 155.643C1052.45 154.959 1054.05 154.095 1055.54 153.067C1056.57 151.576 1057.43 149.978 1058.12 148.301C1058.8 149.978 1059.66 151.576 1060.69 153.067C1062.18 154.095 1063.78 154.959 1065.46 155.643C1063.78 156.327 1062.18 157.191 1060.69 158.219C1059.66 159.71 1058.8 161.308 1058.12 162.985Z" fill="url(#paint3_radial)"/>
<path style="mix-blend-mode:screen" opacity="0.5" d="M1159.52 263.611C1158.83 261.934 1157.97 260.336 1156.94 258.845C1155.45 257.817 1153.85 256.953 1152.17 256.269C1153.85 255.585 1155.45 254.721 1156.94 253.693C1157.96 252.198 1158.83 250.601 1159.52 248.927C1160.21 250.601 1161.07 252.198 1162.09 253.693C1163.58 254.721 1165.18 255.585 1166.86 256.269C1165.18 256.953 1163.58 257.817 1162.09 258.845C1161.06 260.336 1160.2 261.934 1159.52 263.611Z" fill="url(#paint4_radial)"/>
<path style="mix-blend-mode:screen" d="M1146.38 88.7386C1146.44 88.2201 1146.35 87.6933 1146.11 87.228C1145.88 86.7627 1145.5 86.3811 1145.04 86.1338C1144.58 85.8866 1144.06 85.7853 1143.54 85.8436C1143.02 85.9019 1142.53 86.117 1142.13 86.4602C1141.74 86.8034 1141.46 87.2585 1141.33 87.7651C1141.2 88.2717 1141.22 88.8057 1141.41 89.2962C1141.59 89.7868 1141.91 90.2106 1142.34 90.5113C1142.77 90.812 1143.28 90.9755 1143.8 90.9799C1144.43 90.9852 1145.04 90.7603 1145.51 90.3474C1145.99 89.9345 1146.3 89.3623 1146.38 88.7386ZM1162.17 135.394C1161.2 135.309 1160.28 134.94 1159.52 134.333C1158.76 133.725 1158.2 132.907 1157.91 131.981C1157.61 131.054 1157.6 130.062 1157.87 129.128C1158.14 128.195 1158.68 127.362 1159.42 126.734C1160.16 126.107 1161.07 125.713 1162.04 125.603C1163 125.493 1163.98 125.671 1164.85 126.115C1165.71 126.559 1166.42 127.249 1166.9 128.098C1167.37 128.947 1167.58 129.917 1167.5 130.885C1167.45 131.532 1167.27 132.163 1166.97 132.74C1166.68 133.317 1166.27 133.83 1165.77 134.25C1165.28 134.669 1164.7 134.985 1164.09 135.182C1163.47 135.378 1162.82 135.45 1162.17 135.394ZM1177.01 77.3518C1175.07 77.1872 1173.22 76.4516 1171.7 75.2381C1170.18 74.0245 1169.05 72.3874 1168.46 70.5336C1167.87 68.6798 1167.85 66.6925 1168.38 64.8228C1168.92 62.9531 1170 61.285 1171.49 60.0292C1172.97 58.7734 1174.8 57.9863 1176.73 57.7673C1178.67 57.5483 1180.62 57.9073 1182.35 58.799C1184.08 59.6906 1185.51 61.0748 1186.45 62.7767C1187.39 64.4786 1187.81 66.4218 1187.65 68.3608C1187.54 69.6502 1187.18 70.9058 1186.59 72.0558C1185.99 73.2057 1185.18 74.2275 1184.19 75.0626C1183.2 75.8977 1182.06 76.5298 1180.83 76.9226C1179.6 77.3153 1178.3 77.4612 1177.01 77.3518ZM1092.92 58.6485C1091.95 58.5634 1091.03 58.1931 1090.27 57.5843C1089.51 56.9755 1088.95 56.1554 1088.66 55.2278C1088.37 54.3002 1088.35 53.3066 1088.63 52.3726C1088.9 51.4386 1089.44 50.606 1090.18 49.9801C1090.93 49.3542 1091.84 48.963 1092.81 48.856C1093.78 48.749 1094.75 48.931 1095.62 49.3789C1096.48 49.8268 1097.19 50.5206 1097.66 51.3727C1098.13 52.2247 1098.34 53.1967 1098.25 54.1659C1098.2 54.8106 1098.02 55.4382 1097.72 56.0126C1097.42 56.587 1097.01 57.097 1096.52 57.5134C1096.02 57.9297 1095.45 58.2443 1094.83 58.4391C1094.21 58.6339 1093.57 58.705 1092.92 58.6485Z" fill="url(#paint5_radial)"/>
<path style="mix-blend-mode:screen" opacity="0.5" d="M972.972 1093.02C972.462 1091.81 971.823 1090.65 971.066 1089.57C969.993 1088.8 968.834 1088.16 967.613 1087.66C968.829 1087.17 969.987 1086.53 971.066 1085.78C971.823 1084.7 972.462 1083.55 972.972 1082.33C973.254 1083.64 973.907 1084.84 974.853 1085.78C975.799 1086.73 976.997 1087.38 978.305 1087.66C977.084 1088.16 975.925 1088.8 974.852 1089.57C974.102 1090.65 973.471 1091.81 972.972 1093.02Z" fill="url(#paint6_radial)"/>
<path style="mix-blend-mode:screen" opacity="0.5" d="M910.963 851.271C910.463 850.056 909.833 848.898 909.082 847.819C908.003 847.062 906.845 846.423 905.63 845.913C906.937 845.631 908.136 844.978 909.082 844.032C910.028 843.086 910.681 841.888 910.963 840.58C911.245 841.888 911.898 843.086 912.844 844.032C913.789 844.978 914.988 845.631 916.295 845.913C915.08 846.423 913.923 847.062 912.843 847.819C912.093 848.898 911.462 850.056 910.963 851.271Z" fill="url(#paint7_radial)"/>
<path style="mix-blend-mode:screen" d="M942.779 930.67C942.779 931.022 942.884 931.366 943.079 931.658C943.274 931.95 943.552 932.178 943.877 932.313C944.201 932.447 944.559 932.482 944.904 932.414C945.249 932.345 945.565 932.176 945.814 931.927C946.062 931.679 946.232 931.362 946.3 931.017C946.369 930.672 946.334 930.315 946.199 929.99C946.065 929.665 945.837 929.388 945.545 929.192C945.252 928.997 944.909 928.893 944.557 928.893C944.086 928.893 943.633 929.08 943.3 929.413C942.967 929.747 942.779 930.199 942.779 930.67ZM928.481 897.927C929.191 897.927 929.884 898.137 930.474 898.532C931.063 898.927 931.522 899.488 931.792 900.143C932.062 900.799 932.132 901.52 931.992 902.216C931.851 902.911 931.508 903.549 931.004 904.049C930.501 904.549 929.86 904.888 929.164 905.023C928.468 905.158 927.747 905.084 927.093 904.809C926.439 904.534 925.882 904.071 925.491 903.478C925.101 902.886 924.895 902.191 924.901 901.482C924.907 900.537 925.288 899.632 925.958 898.966C926.629 898.3 927.536 897.927 928.481 897.927ZM921.32 940.795C922.738 940.79 924.126 941.206 925.308 941.991C926.49 942.776 927.412 943.894 927.957 945.204C928.502 946.514 928.646 947.956 928.371 949.348C928.095 950.739 927.413 952.018 926.409 953.021C925.406 954.024 924.128 954.707 922.736 954.982C921.344 955.258 919.902 955.114 918.593 954.568C917.283 954.023 916.165 953.101 915.38 951.92C914.595 950.738 914.178 949.35 914.183 947.931C914.183 946.038 914.935 944.223 916.274 942.885C917.612 941.547 919.427 940.795 921.32 940.795ZM983.149 949.116C983.858 949.111 984.553 949.317 985.145 949.707C985.737 950.097 986.2 950.655 986.475 951.309C986.75 951.963 986.825 952.683 986.69 953.38C986.554 954.076 986.215 954.716 985.716 955.22C985.216 955.723 984.578 956.067 983.882 956.207C983.187 956.347 982.466 956.278 981.81 956.008C981.154 955.737 980.593 955.279 980.199 954.689C979.804 954.1 979.593 953.406 979.593 952.697C979.583 952.214 979.67 951.733 979.85 951.285C980.03 950.836 980.3 950.429 980.641 950.087C980.983 949.745 981.391 949.476 981.839 949.296C982.288 949.116 982.768 949.028 983.252 949.039L983.149 949.116Z" fill="url(#paint8_radial)"/>
<path style="mix-blend-mode:screen" opacity="0.5" d="M930.362 336.802C931.488 337.526 932.798 337.91 934.136 337.91C935.474 337.91 936.784 337.526 937.91 336.802C937.405 338.012 937.034 339.273 936.802 340.563C937.03 341.863 937.402 343.133 937.91 344.351C936.784 343.627 935.474 343.242 934.136 343.242C932.798 343.242 931.488 343.627 930.362 344.351C930.87 343.133 931.242 341.863 931.47 340.563C931.238 339.273 930.867 338.012 930.362 336.802Z" fill="url(#paint9_radial)"/>
<path style="mix-blend-mode:screen" opacity="0.5" d="M962.127 159.765C963.258 160.488 964.572 160.872 965.914 160.872C967.256 160.872 968.57 160.488 969.701 159.765C969.193 160.983 968.821 162.253 968.593 163.552C968.825 164.842 969.196 166.104 969.701 167.313C968.57 166.591 967.256 166.207 965.914 166.207C964.572 166.207 963.258 166.591 962.127 167.313C962.632 166.104 963.004 164.842 963.235 163.552C963.007 162.253 962.635 160.983 962.127 159.765Z" fill="url(#paint10_radial)"/>
<path style="mix-blend-mode:screen" d="M954.939 243.157C955.171 243.415 955.475 243.599 955.811 243.687C956.147 243.774 956.501 243.761 956.83 243.65C957.159 243.538 957.448 243.333 957.661 243.059C957.874 242.785 958.003 242.454 958.031 242.108C958.058 241.762 957.984 241.415 957.817 241.111C957.65 240.807 957.397 240.558 957.09 240.395C956.783 240.233 956.436 240.164 956.09 240.197C955.744 240.23 955.416 240.363 955.145 240.581C954.953 240.73 954.794 240.918 954.679 241.132C954.564 241.346 954.494 241.581 954.475 241.824C954.455 242.066 954.487 242.31 954.567 242.539C954.646 242.769 954.773 242.979 954.939 243.157ZM922.891 227.339C923.434 226.895 924.097 226.621 924.795 226.55C925.493 226.48 926.197 226.616 926.818 226.942C927.44 227.268 927.952 227.769 928.291 228.384C928.63 228.998 928.781 229.699 928.725 230.399C928.669 231.098 928.409 231.766 927.976 232.319C927.544 232.872 926.959 233.286 926.293 233.509C925.628 233.732 924.911 233.754 924.233 233.573C923.555 233.392 922.945 233.016 922.479 232.492C922.154 232.13 921.906 231.706 921.75 231.246C921.594 230.786 921.534 230.299 921.572 229.814C921.611 229.33 921.748 228.858 921.974 228.428C922.201 227.998 922.513 227.619 922.891 227.314V227.339ZM945.072 264.72C946.151 263.812 947.475 263.244 948.877 263.088C950.279 262.932 951.695 263.195 952.948 263.843C954.2 264.492 955.232 265.497 955.914 266.731C956.596 267.966 956.896 269.375 956.777 270.78C956.659 272.186 956.126 273.524 955.248 274.627C954.369 275.73 953.182 276.548 951.839 276.978C950.496 277.407 949.055 277.429 947.699 277.04C946.344 276.651 945.134 275.869 944.222 274.793C943.614 274.074 943.154 273.243 942.868 272.346C942.581 271.45 942.475 270.505 942.554 269.567C942.633 268.63 942.896 267.716 943.328 266.88C943.76 266.044 944.353 265.301 945.072 264.694V264.72ZM997.781 231.152C998.325 230.72 998.983 230.456 999.675 230.394C1000.37 230.332 1001.06 230.473 1001.67 230.801C1002.28 231.129 1002.79 231.629 1003.12 232.24C1003.45 232.85 1003.59 233.544 1003.54 234.236C1003.48 234.928 1003.22 235.588 1002.79 236.133C1002.36 236.679 1001.78 237.087 1001.12 237.307C1000.46 237.527 999.753 237.549 999.082 237.371C998.41 237.193 997.806 236.822 997.343 236.304C997.021 235.944 996.775 235.52 996.622 235.061C996.468 234.602 996.41 234.116 996.451 233.634C996.492 233.151 996.631 232.682 996.86 232.256C997.089 231.829 997.402 231.453 997.781 231.152Z" fill="url(#paint11_radial)"/>
<path style="mix-blend-mode:screen" opacity="0.5" d="M1384.73 681.473C1385.76 680.439 1387.08 679.735 1388.51 679.45C1389.95 679.165 1391.43 679.312 1392.79 679.872C1394.14 680.432 1395.29 681.379 1396.1 682.595C1396.92 683.811 1397.35 685.24 1397.35 686.702C1397.35 688.165 1396.92 689.594 1396.1 690.81C1395.29 692.025 1394.14 692.973 1392.79 693.533C1391.43 694.093 1389.95 694.239 1388.51 693.954C1387.08 693.669 1385.76 692.966 1384.73 691.932C1383.35 690.539 1382.58 688.66 1382.58 686.702C1382.58 684.745 1383.35 682.866 1384.73 681.473Z" fill="url(#paint12_radial)"/>
<path style="mix-blend-mode:screen" opacity="0.5" d="M1002.93 975.624C1004.48 976.591 1006.26 977.103 1008.09 977.103C1009.91 977.103 1011.69 976.591 1013.24 975.624C1012.55 977.283 1012.04 979.01 1011.72 980.776C1012.04 982.544 1012.55 984.271 1013.24 985.929C1011.69 984.962 1009.91 984.449 1008.09 984.449C1006.26 984.449 1004.48 984.962 1002.93 985.929C1003.64 984.273 1004.15 982.545 1004.48 980.776C1004.15 979.008 1003.63 977.281 1002.93 975.624Z" fill="url(#paint13_radial)"/>
<path style="mix-blend-mode:screen" opacity="0.5" d="M1298.94 1150.78C1300.49 1151.79 1302.31 1152.33 1304.16 1152.33C1306.01 1152.33 1307.82 1151.79 1309.37 1150.78C1308.38 1152.34 1307.85 1154.15 1307.85 1156C1307.85 1157.85 1308.38 1159.66 1309.37 1161.21C1307.81 1160.22 1306 1159.69 1304.16 1159.69C1302.31 1159.69 1300.5 1160.22 1298.94 1161.21C1299.95 1159.66 1300.48 1157.85 1300.48 1156C1300.48 1154.15 1299.95 1152.33 1298.94 1150.78Z" fill="url(#paint14_radial)"/>
<path style="mix-blend-mode:screen" d="M1190.59 1104.41C1190.11 1103.98 1189.49 1103.73 1188.85 1103.73C1188.2 1103.73 1187.58 1103.98 1187.11 1104.41C1186.75 1104.6 1186.44 1104.87 1186.21 1105.2C1185.97 1105.52 1185.82 1105.9 1185.76 1106.3C1185.7 1106.7 1185.73 1107.11 1185.86 1107.49C1185.98 1107.88 1186.2 1108.23 1186.48 1108.51C1186.77 1108.8 1187.12 1109.01 1187.5 1109.14C1187.88 1109.27 1188.29 1109.3 1188.69 1109.24C1189.09 1109.18 1189.47 1109.02 1189.8 1108.79C1190.13 1108.55 1190.4 1108.25 1190.59 1107.89C1191.02 1107.41 1191.26 1106.79 1191.26 1106.15C1191.26 1105.5 1191.02 1104.88 1190.59 1104.41ZM1236.42 1122.44C1235.73 1123.13 1234.85 1123.6 1233.9 1123.79C1232.94 1123.98 1231.95 1123.88 1231.05 1123.51C1230.15 1123.14 1229.38 1122.51 1228.84 1121.7C1228.3 1120.89 1228.01 1119.94 1228.01 1118.97C1228.01 1117.99 1228.3 1117.04 1228.84 1116.23C1229.38 1115.42 1230.15 1114.79 1231.05 1114.42C1231.95 1114.05 1232.94 1113.95 1233.9 1114.14C1234.85 1114.33 1235.73 1114.8 1236.42 1115.49C1237.33 1116.4 1237.84 1117.65 1237.84 1118.94C1237.84 1120.23 1237.33 1121.47 1236.42 1122.39V1122.44ZM1201.61 1073.7C1200.24 1075.08 1198.48 1076.02 1196.57 1076.4C1194.66 1076.78 1192.68 1076.58 1190.89 1075.84C1189.09 1075.09 1187.55 1073.83 1186.47 1072.21C1185.39 1070.6 1184.81 1068.69 1184.81 1066.75C1184.81 1064.8 1185.39 1062.9 1186.47 1061.28C1187.55 1059.66 1189.09 1058.4 1190.89 1057.65C1192.68 1056.91 1194.66 1056.71 1196.57 1057.09C1198.48 1057.47 1200.24 1058.41 1201.61 1059.79C1203.43 1061.64 1204.45 1064.13 1204.45 1066.72C1204.45 1069.31 1203.43 1071.8 1201.61 1073.65V1073.7ZM1133.14 1125.95C1132.44 1126.64 1131.56 1127.11 1130.6 1127.31C1129.64 1127.5 1128.65 1127.4 1127.74 1127.03C1126.84 1126.65 1126.06 1126.02 1125.52 1125.21C1124.98 1124.39 1124.68 1123.44 1124.68 1122.46C1124.68 1121.48 1124.98 1120.52 1125.52 1119.71C1126.06 1118.89 1126.84 1118.26 1127.74 1117.88C1128.65 1117.51 1129.64 1117.41 1130.6 1117.61C1131.56 1117.8 1132.44 1118.27 1133.14 1118.97C1134.04 1119.89 1134.54 1121.14 1134.54 1122.43C1134.54 1123.72 1134.04 1124.97 1133.14 1125.9V1125.95Z" fill="url(#paint15_radial)"/>
<path style="mix-blend-mode:screen" opacity="0.5" d="M1309.5 337.936C1310.56 339.407 1311.78 340.755 1313.13 341.954C1314.79 342.621 1316.52 343.105 1318.29 343.397C1316.82 344.46 1315.47 345.678 1314.27 347.03C1313.62 348.693 1313.14 350.42 1312.85 352.182C1311.78 350.722 1310.56 349.375 1309.22 348.163C1307.56 347.503 1305.83 347.028 1304.07 346.746C1305.54 345.674 1306.9 344.448 1308.11 343.088C1308.75 341.423 1309.22 339.697 1309.5 337.936Z" fill="url(#paint16_radial)"/>
<path style="mix-blend-mode:screen" opacity="0.5" d="M1352.47 78.666C1353.55 80.1309 1354.77 81.478 1356.13 82.6849C1357.8 83.3345 1359.52 83.8094 1361.28 84.1018C1359.82 85.1658 1358.47 86.3835 1357.27 87.7343C1356.6 89.3945 1356.12 91.1221 1355.82 92.8867C1354.76 91.411 1353.54 90.0549 1352.19 88.842C1350.53 88.1924 1348.8 87.7175 1347.04 87.4251C1348.5 86.3623 1349.85 85.1444 1351.06 83.7927C1351.72 82.1411 1352.19 80.4218 1352.47 78.666Z" fill="url(#paint17_radial)"/>
<path style="mix-blend-mode:screen" opacity="0.5" d="M1013.57 270.67C1014.64 272.13 1015.86 273.477 1017.21 274.689C1018.87 275.35 1020.59 275.825 1022.36 276.106C1020.88 277.178 1019.53 278.404 1018.31 279.764C1017.66 281.428 1017.19 283.155 1016.9 284.917C1015.84 283.445 1014.62 282.097 1013.26 280.898C1011.6 280.231 1009.88 279.747 1008.11 279.455C1009.58 278.392 1010.93 277.175 1012.13 275.823C1012.79 274.16 1013.27 272.433 1013.57 270.67Z" fill="url(#paint18_radial)"/>
<path style="mix-blend-mode:screen" d="M945.484 174.424C945.203 173.948 944.777 173.574 944.269 173.359C943.76 173.143 943.195 173.097 942.658 173.227C942.121 173.357 941.64 173.656 941.286 174.08C940.932 174.504 940.724 175.031 940.692 175.583C940.873 176.204 941.281 176.734 941.834 177.068C942.388 177.402 943.047 177.516 943.68 177.386C943.996 177.314 944.293 177.179 944.555 176.99C944.817 176.801 945.039 176.561 945.207 176.285C945.375 176.009 945.486 175.702 945.534 175.382C945.581 175.063 945.564 174.737 945.484 174.424ZM975.136 213.762C974.19 213.984 973.2 213.921 972.29 213.581C971.379 213.241 970.59 212.639 970.022 211.851C969.454 211.063 969.131 210.124 969.095 209.153C969.059 208.182 969.312 207.223 969.821 206.395C970.329 205.567 971.072 204.909 971.954 204.502C972.837 204.096 973.82 203.96 974.78 204.111C975.739 204.263 976.633 204.695 977.347 205.353C978.062 206.012 978.565 206.867 978.794 207.811C979.096 209.085 978.881 210.427 978.195 211.543C977.509 212.659 976.409 213.457 975.136 213.762ZM970.988 153.994C969.096 154.444 967.112 154.324 965.288 153.647C963.465 152.971 961.882 151.769 960.741 150.193C959.6 148.618 958.951 146.74 958.877 144.796C958.803 142.852 959.306 140.93 960.324 139.272C961.342 137.614 962.828 136.295 964.595 135.481C966.362 134.668 968.33 134.396 970.252 134.7C972.173 135.005 973.961 135.872 975.39 137.192C976.818 138.513 977.824 140.227 978.279 142.118C978.883 144.659 978.456 147.337 977.089 149.563C975.722 151.79 973.528 153.383 970.988 153.994ZM885.304 162.676C884.358 162.903 883.366 162.845 882.454 162.508C881.542 162.172 880.749 161.573 880.177 160.787C879.605 160 879.279 159.062 879.239 158.091C879.2 157.119 879.449 156.158 879.956 155.328C880.462 154.498 881.203 153.836 882.086 153.427C882.968 153.018 883.951 152.88 884.912 153.029C885.873 153.179 886.768 153.61 887.484 154.267C888.2 154.925 888.706 155.78 888.936 156.725C889.239 157.996 889.027 159.334 888.347 160.449C887.666 161.564 886.572 162.365 885.304 162.676Z" fill="url(#paint19_radial)"/>
<path style="mix-blend-mode:screen" d="M1405.93 245.734C1405.99 246.25 1406.2 246.736 1406.54 247.13C1406.87 247.524 1407.32 247.807 1407.82 247.941C1408.33 248.076 1408.86 248.056 1409.35 247.883C1409.84 247.711 1410.26 247.396 1410.57 246.977C1410.88 246.559 1411.05 246.057 1411.07 245.539C1411.08 245.02 1410.94 244.508 1410.67 244.07C1410.39 243.632 1409.98 243.289 1409.51 243.085C1409.03 242.88 1408.5 242.825 1407.99 242.926C1407.36 243.051 1406.8 243.409 1406.41 243.929C1406.03 244.449 1405.86 245.093 1405.93 245.734ZM1379.73 204.025C1380.69 203.885 1381.67 204.031 1382.55 204.447C1383.43 204.862 1384.16 205.528 1384.66 206.36C1385.16 207.192 1385.4 208.153 1385.36 209.122C1385.31 210.092 1384.98 211.026 1384.41 211.808C1383.83 212.59 1383.04 213.185 1382.13 213.517C1381.21 213.849 1380.23 213.904 1379.28 213.675C1378.34 213.447 1377.48 212.944 1376.83 212.231C1376.17 211.517 1375.74 210.625 1375.58 209.667C1375.47 209.02 1375.49 208.357 1375.64 207.718C1375.79 207.079 1376.07 206.477 1376.46 205.946C1376.84 205.416 1377.33 204.968 1377.89 204.629C1378.46 204.29 1379.08 204.067 1379.73 203.973V204.025ZM1378.8 263.767C1380.73 263.478 1382.69 263.767 1384.45 264.595C1386.22 265.424 1387.69 266.756 1388.69 268.423C1389.7 270.09 1390.19 272.017 1390.09 273.96C1390 275.904 1389.34 277.777 1388.18 279.343C1387.03 280.908 1385.43 282.096 1383.6 282.757C1381.77 283.417 1379.79 283.52 1377.9 283.052C1376.01 282.585 1374.3 281.568 1372.99 280.13C1371.68 278.692 1370.83 276.898 1370.53 274.974C1370.15 272.392 1370.8 269.763 1372.35 267.662C1373.9 265.562 1376.22 264.161 1378.8 263.767ZM1464.9 262.402C1465.86 262.254 1466.85 262.396 1467.73 262.809C1468.61 263.222 1469.35 263.887 1469.86 264.72C1470.36 265.554 1470.6 266.518 1470.56 267.491C1470.52 268.464 1470.18 269.402 1469.61 270.186C1469.03 270.97 1468.23 271.564 1467.31 271.895C1466.4 272.225 1465.4 272.276 1464.46 272.041C1463.51 271.806 1462.66 271.296 1462 270.575C1461.35 269.854 1460.92 268.955 1460.78 267.992C1460.62 266.721 1460.95 265.436 1461.72 264.411C1462.49 263.386 1463.63 262.703 1464.9 262.505V262.402Z" fill="url(#paint20_radial)"/>
<path style="mix-blend-mode:screen" opacity="0.5" d="M1022.02 826.72C1020.72 826.519 1019.4 826.45 1018.08 826.514C1016.88 827.041 1015.74 827.698 1014.68 828.472C1014.88 827.177 1014.94 825.864 1014.86 824.556C1014.36 823.341 1013.71 822.191 1012.93 821.13C1014.22 821.343 1015.54 821.413 1016.85 821.336C1018.05 820.807 1019.2 820.151 1020.27 819.378C1019.83 820.641 1019.76 822.004 1020.07 823.306C1020.38 824.608 1021.06 825.793 1022.02 826.72Z" fill="url(#paint21_radial)"/>
<path style="mix-blend-mode:screen" d="M867.889 767.492C868.289 767.741 868.771 767.821 869.23 767.715C869.689 767.609 870.087 767.325 870.336 766.925C870.476 766.72 870.571 766.488 870.617 766.244C870.662 766.001 870.657 765.75 870.602 765.508C870.546 765.266 870.441 765.039 870.294 764.839C870.146 764.64 869.959 764.473 869.744 764.349C869.544 764.227 869.322 764.146 869.091 764.11C868.86 764.074 868.624 764.084 868.397 764.139C868.17 764.194 867.956 764.293 867.767 764.431C867.578 764.568 867.418 764.742 867.296 764.942C867.174 765.141 867.093 765.363 867.057 765.594C867.021 765.825 867.031 766.061 867.086 766.288C867.141 766.515 867.24 766.73 867.378 766.918C867.515 767.107 867.689 767.267 867.889 767.389V767.492ZM832.492 762.546C832.862 761.95 833.399 761.477 834.037 761.186C834.675 760.896 835.385 760.8 836.077 760.912C836.769 761.023 837.413 761.337 837.927 761.813C838.442 762.29 838.804 762.907 838.968 763.589C839.132 764.271 839.091 764.986 838.85 765.644C838.609 766.302 838.179 766.875 837.613 767.289C837.048 767.704 836.372 767.941 835.672 767.973C834.971 768.005 834.277 767.828 833.677 767.466C832.867 766.971 832.288 766.174 832.066 765.251C831.844 764.329 831.997 763.356 832.492 762.546ZM865.287 791.064C866.028 789.857 867.111 788.896 868.398 788.303C869.686 787.711 871.12 787.514 872.52 787.738C873.919 787.961 875.221 788.595 876.26 789.558C877.299 790.522 878.029 791.772 878.358 793.15C878.686 794.529 878.598 795.974 878.105 797.303C877.612 798.631 876.735 799.784 875.587 800.614C874.439 801.444 873.07 801.915 871.653 801.967C870.237 802.019 868.837 801.65 867.631 800.906C866.017 799.91 864.864 798.315 864.424 796.47C863.985 794.625 864.295 792.681 865.287 791.064ZM904.806 742.658C905.178 742.063 905.718 741.592 906.358 741.304C906.997 741.015 907.708 740.922 908.4 741.037C909.092 741.152 909.734 741.468 910.247 741.947C910.759 742.426 911.118 743.046 911.279 743.729C911.44 744.412 911.395 745.127 911.151 745.784C910.906 746.442 910.472 747.012 909.904 747.424C909.336 747.835 908.659 748.069 907.958 748.097C907.257 748.124 906.564 747.944 905.965 747.578C905.16 747.078 904.586 746.28 904.369 745.357C904.152 744.435 904.309 743.464 904.806 742.658Z" fill="url(#paint22_radial)"/>
<path style="mix-blend-mode:screen" opacity="0.5" d="M1409.85 952.285C1409.08 953.529 1407.96 954.519 1406.63 955.128C1405.3 955.737 1403.82 955.938 1402.38 955.707C1400.93 955.475 1399.59 954.82 1398.52 953.825C1397.45 952.831 1396.7 951.54 1396.36 950.118C1396.02 948.696 1396.11 947.205 1396.62 945.834C1397.13 944.463 1398.03 943.274 1399.22 942.417C1400.4 941.56 1401.81 941.073 1403.27 941.018C1404.73 940.963 1406.18 941.342 1407.42 942.108C1408.25 942.617 1408.97 943.284 1409.54 944.071C1410.11 944.858 1410.52 945.75 1410.74 946.695C1410.97 947.64 1411.01 948.62 1410.85 949.579C1410.7 950.538 1410.36 951.457 1409.85 952.285Z" fill="url(#paint23_radial)"/>
<path style="mix-blend-mode:screen" opacity="0.5" d="M1127.29 637.574C1125.5 637.297 1123.68 637.211 1121.88 637.317C1120.22 638.004 1118.64 638.867 1117.16 639.893C1117.45 638.105 1117.55 636.291 1117.45 634.483C1116.71 632.822 1115.8 631.242 1114.74 629.768C1116.48 630.38 1118.36 630.477 1120.16 630.047C1121.95 629.618 1123.59 628.68 1124.87 627.347C1124.57 629.134 1124.49 630.949 1124.61 632.757C1125.31 634.459 1126.21 636.076 1127.29 637.574Z" fill="url(#paint24_radial)"/>
<path style="mix-blend-mode:screen" opacity="0.5" d="M1141.46 885.07C1139.67 884.781 1137.85 884.686 1136.05 884.787C1134.38 885.507 1132.8 886.414 1131.33 887.492C1131.61 885.694 1131.7 883.872 1131.59 882.056C1130.9 880.397 1130.04 878.816 1129.01 877.342C1130.8 877.631 1132.62 877.725 1134.42 877.625C1136.08 876.94 1137.66 876.076 1139.14 875.049C1138.85 876.845 1138.75 878.668 1138.85 880.485C1139.57 882.097 1140.44 883.633 1141.46 885.07Z" fill="url(#paint25_radial)"/>
<path style="mix-blend-mode:screen" opacity="0.5" d="M1280.26 851.297C1278.47 851.006 1276.64 850.92 1274.83 851.04C1273.17 851.725 1271.6 852.589 1270.14 853.616C1270.41 851.827 1270.5 850.013 1270.4 848.206C1269.71 846.546 1268.84 844.966 1267.82 843.491C1269.61 843.782 1271.42 843.868 1273.23 843.749C1274.89 843.062 1276.47 842.198 1277.94 841.173C1277.65 842.961 1277.56 844.775 1277.66 846.583C1278.36 848.239 1279.24 849.819 1280.26 851.297Z" fill="url(#paint26_radial)"/>
<path style="mix-blend-mode:screen" opacity="0.5" d="M1384.21 475.892C1382.42 475.602 1380.59 475.507 1378.78 475.608C1377.12 476.333 1375.55 477.24 1374.09 478.313C1374.37 476.515 1374.45 474.693 1374.35 472.877C1373.66 471.217 1372.8 469.636 1371.77 468.163C1373.57 468.452 1375.39 468.547 1377.21 468.446C1378.87 467.761 1380.45 466.897 1381.92 465.87C1381.63 467.667 1381.54 469.489 1381.64 471.306C1382.33 472.922 1383.19 474.459 1384.21 475.892Z" fill="url(#paint27_radial)"/>
<path style="mix-blend-mode:screen" d="M1124.38 770.996C1123.97 770.67 1123.48 770.474 1122.96 770.433C1122.45 770.392 1121.93 770.508 1121.48 770.766C1121.03 771.024 1120.67 771.412 1120.44 771.878C1120.22 772.345 1120.14 772.869 1120.21 773.382C1120.29 773.895 1120.52 774.372 1120.87 774.753C1121.22 775.133 1121.68 775.398 1122.19 775.513C1122.69 775.629 1123.22 775.588 1123.7 775.398C1124.19 775.208 1124.6 774.877 1124.89 774.448C1125.25 773.913 1125.4 773.261 1125.31 772.621C1125.21 771.982 1124.88 771.401 1124.38 770.996ZM1172.4 781.945C1171.82 782.726 1171.02 783.318 1170.11 783.647C1169.19 783.976 1168.2 784.027 1167.26 783.793C1166.32 783.559 1165.46 783.052 1164.81 782.334C1164.15 781.617 1163.73 780.721 1163.58 779.761C1163.43 778.8 1163.57 777.818 1163.98 776.937C1164.39 776.057 1165.06 775.317 1165.89 774.812C1166.72 774.308 1167.68 774.06 1168.65 774.1C1169.62 774.141 1170.56 774.468 1171.34 775.04C1172.39 775.817 1173.1 776.98 1173.3 778.274C1173.49 779.568 1173.17 780.888 1172.4 781.945ZM1130.69 738.922C1129.53 740.489 1127.94 741.679 1126.11 742.342C1124.28 743.004 1122.29 743.108 1120.4 742.641C1118.51 742.175 1116.81 741.158 1115.49 739.72C1114.18 738.282 1113.33 736.488 1113.03 734.563C1112.74 732.639 1113.03 730.671 1113.85 728.908C1114.68 727.146 1116.01 725.668 1117.68 724.662C1119.34 723.656 1121.27 723.167 1123.22 723.256C1125.16 723.346 1127.03 724.01 1128.6 725.165C1130.7 726.717 1132.09 729.035 1132.48 731.613C1132.87 734.191 1132.23 736.818 1130.69 738.922ZM1070.77 800.751C1070.19 801.534 1069.39 802.128 1068.47 802.457C1067.56 802.787 1066.56 802.837 1065.62 802.603C1064.68 802.368 1063.82 801.858 1063.17 801.138C1062.51 800.417 1062.09 799.519 1061.94 798.556C1061.8 797.594 1061.94 796.61 1062.36 795.729C1062.77 794.849 1063.44 794.111 1064.27 793.61C1065.11 793.109 1066.07 792.866 1067.04 792.913C1068.02 792.959 1068.95 793.293 1069.73 793.872C1070.26 794.255 1070.71 794.739 1071.05 795.297C1071.39 795.855 1071.61 796.475 1071.71 797.12C1071.81 797.766 1071.77 798.424 1071.61 799.057C1071.45 799.689 1071.16 800.283 1070.77 800.802V800.751Z" fill="url(#paint28_radial)"/>
<path style="mix-blend-mode:multiply" opacity="0.45" d="M1548.88 -123C1548.88 -123 1286.11 90.0526 832.543 135.42C378.975 180.787 152.14 299.164 390.001 401.748C627.863 504.333 1410.59 431.22 1681.64 573.375C1952.68 715.531 2052.28 -89.4835 1548.88 -123Z" fill="url(#paint29_radial)"/>
<path style="mix-blend-mode:multiply" opacity="0.45" d="M-197.941 1470C-197.941 1470 64.8327 1256.95 518.4 1211.58C971.968 1166.21 1198.73 1047.84 960.942 945.252C723.158 842.667 -59.6498 915.651 -330.693 773.625C-601.736 631.598 -701.332 1436.46 -197.941 1470Z" fill="url(#paint30_radial)"/>
<path style="mix-blend-mode:screen" d="M1971.28 875.874C1883.69 898.159 1786.18 888.755 1698 867.94C1609.81 847.124 1527.37 815.591 1440.37 792.611C1315.74 759.739 1180.18 744.823 1048.79 759.12C899.061 775.479 762.831 828.24 621.964 867.862C481.096 907.484 321.681 934.045 179.577 896.587C99.2762 875.436 28.9456 834.758 -55.3223 824.092C-155.356 811.34 -257.246 843.672 -336.619 888.936C-341.41 890.662 -332.986 886.54 -331.749 890.25C-308.074 960.838 -314.128 1036.32 -348.881 1104.54C-312.093 1087.74 -293.879 1054.35 -254.953 1040.26C-236.739 1033.64 -215.871 1032.04 -195.545 1030.55C-134.695 1026.07 -72.9434 1021.58 -12.6343 1029.08C80.5731 1040.67 163.038 1079.94 255.292 1094.44C363.132 1111.39 475.789 1093.38 579.894 1067.31C683.999 1041.24 784.78 1007.05 892.595 990.026C1054.15 964.625 1227.76 980.237 1375.38 1033.49C1446.92 1059.25 1512.12 1093.41 1584.05 1118.5C1655.98 1143.59 1738.88 1159.36 1816.5 1145.11C1876.78 1134.14 1927.79 1106.19 1976.05 1078.39C1994.08 1068.09 2012.71 1056.8 2021.16 1041.4C2030.02 1025.27 2026.31 1007.18 2022.34 990.078C2014.66 956.329 2006.98 922.581 1999.28 888.833" fill="url(#paint31_radial)"/>
<path style="mix-blend-mode:screen" opacity="0.45" d="M1747.61 577.447C1642.74 608.748 1535.36 637.808 1423.01 649.813C1310.66 661.818 1191.67 655.764 1089.96 619.517C1051.52 605.837 1016.07 588.061 976.914 575.463C828.55 527.7 654.527 561.037 505.055 607.022C418.186 633.763 330.981 665.115 236.511 668.98C160.745 672.071 85.7772 657.103 14.5707 638.4C-88.8391 611.461 -189.621 575.292 -286.562 530.328C-293.673 573.265 -302.715 616.082 -313.69 658.778C-294.136 641.904 -260.697 635.85 -230.195 638.168C-199.693 640.487 -171.277 649.993 -143.763 659.68C-60.6373 688.997 20.0839 721.509 98.4008 757.215C133.875 773.394 171.694 790.86 213.815 790.371C245.811 789.984 275.489 779.216 303.982 768.679L549.392 677.507C596.897 659.886 645.639 641.955 698.812 636.983C749.023 632.269 799.825 639.559 849.263 647.288C1034.75 677.043 1220.93 717.799 1410.72 709.529C1557.77 703.218 1698.92 667.537 1837.63 632.166C1814.64 613.994 1789.24 599.091 1762.17 587.881" fill="url(#paint32_radial)"/>
<g style="mix-blend-mode:screen">
<path style="mix-blend-mode:screen" d="M-445.361 382.968C-442.518 385.512 -439.467 387.812 -436.241 389.846C-433.227 392.062 -429.182 394.535 -424.416 397.446C-421.994 398.889 -419.547 400.563 -416.687 402.109L-407.593 407.081C-391.609 415.572 -375.046 422.923 -358.027 429.082C-334.99 437.408 -311.336 443.92 -287.284 448.558C-257.927 454.128 -228.13 457.051 -198.25 457.292C-166.125 457.755 -132.608 454.02 -98.6797 449.563C-64.7511 445.106 -29.895 440.134 5.88855 439.67C42.0321 438.819 78.1903 440.54 114.089 444.823C150.156 449.177 185.631 455.282 220.41 462.109C255.188 468.936 289.22 476.484 322.299 483.569C355.377 490.654 387.606 497.171 418.495 502.633C449.383 508.094 479.087 512.294 506.858 514.69C513.788 515.308 520.564 516.003 527.211 516.544L546.764 517.523L565.339 518.425C571.367 518.657 577.241 518.425 582.908 518.58H599.396C604.703 518.58 609.701 518.58 614.724 518.374L641.697 517.292C649.864 517.085 657.155 516.338 663.337 515.875L679.31 514.561L689.228 513.762C691.47 513.582 692.603 513.401 692.603 513.401L705.768 511.778L721.611 509.795C724.703 509.408 728.078 509.022 731.607 508.507L742.865 506.729L769.142 502.504C778.623 500.778 788.825 498.743 799.748 496.656C810.671 494.569 822.109 491.942 834.243 489.288C840.272 487.897 846.532 486.712 852.792 485.037L872.036 480.22C924.436 467.03 984.101 449.022 1046.42 427.588C1077.54 416.845 1109.51 405.458 1141.74 393.582C1173.97 381.706 1206.53 369.597 1239.64 358.339C1256.17 352.723 1272.84 347.391 1289.64 342.341C1306.49 337.446 1323.39 332.783 1340.44 328.816C1357.5 324.849 1374.6 321.268 1391.79 318.666C1396.04 317.919 1400.34 317.326 1404.67 316.785C1409 316.244 1413.22 315.574 1417.55 315.111C1426.1 314.26 1434.58 313.204 1443.1 312.792C1475.81 310.52 1508.65 310.813 1541.31 313.668C1570.39 316.207 1599.3 320.422 1627.9 326.291C1634.47 327.708 1640.96 328.868 1647.19 330.439L1665.43 334.793C1677.15 337.91 1688.39 340.744 1698.64 343.887C1719.25 349.812 1736.97 355.84 1751.48 360.813C1765.98 365.785 1777.11 370.01 1784.68 372.921C1788.49 374.583 1792.41 375.986 1796.41 377.12C1792.87 375.118 1789.18 373.395 1785.38 371.968C1778.09 368.67 1767.06 364.239 1752.89 358.7C1738.72 353.161 1721.18 346.901 1700.52 340.667C1690.21 337.343 1679.09 334.303 1667.34 330.954L1649.05 326.266C1642.81 324.643 1636.17 323.329 1629.67 321.809C1600.78 315.432 1571.53 310.787 1542.08 307.897C1508.77 304.598 1475.26 303.944 1441.84 305.939C1433.11 306.274 1424.4 307.253 1415.62 308.052C1411.24 308.49 1406.86 309.108 1402.45 309.649C1398.05 310.19 1393.67 310.731 1389.29 311.452C1371.67 314.029 1354.2 317.506 1336.71 321.319C1319.21 325.132 1302.01 329.795 1284.85 334.638C1267.69 339.482 1250.76 344.943 1233.99 350.405C1200.5 361.508 1167.6 373.591 1135.27 385.029C1102.94 396.467 1070.87 407.751 1039.95 418.236C977.687 438.949 918.357 456.467 866.394 469.194L847.356 473.857C841.173 475.351 834.99 476.587 829.039 477.901C817.086 480.478 805.853 483.054 795.008 484.986C784.162 486.918 774.217 488.902 764.892 490.576L739.13 494.544L728.103 496.244C724.6 496.733 721.328 497.068 718.262 497.455L702.805 499.31L689.924 500.83C689.924 500.83 688.816 501.01 686.626 501.216L676.991 502.04L661.405 503.38C655.274 503.869 648.241 504.668 640.28 504.9L614.029 506.085C609.237 506.394 604.265 506.394 599.087 506.368H583.037C577.524 506.368 571.805 506.497 565.931 506.368L547.897 505.596L528.859 504.771C522.367 504.282 515.772 503.638 508.997 503.071C481.921 500.881 452.861 496.682 422.23 491.761C391.599 486.841 359.654 480.297 326.549 473.47C293.445 466.643 259.233 459.404 224.119 452.654C189.005 445.905 152.81 440.108 116.125 435.986C79.3522 431.867 42.3312 430.394 5.34766 431.581C-31.4664 432.38 -66.7863 437.944 -100.56 442.556C-134.334 447.167 -167.001 451.263 -198.25 451.16C-227.508 451.258 -256.717 448.758 -285.532 443.689C-309.33 439.464 -332.773 433.435 -355.657 425.656C-372.69 419.863 -389.332 412.978 -405.48 405.046L-414.755 400.357C-417.718 398.915 -420.242 397.343 -422.716 396.004C-427.636 393.273 -431.861 390.851 -435.056 388.919C-438.338 386.682 -441.782 384.693 -445.361 382.968Z" fill="url(#paint33_radial)"/>
</g>
<g style="mix-blend-mode:screen">
<path style="mix-blend-mode:screen" d="M-344.166 1074.32C-343.677 1075.09 -327.188 1070.38 -298.232 1062.57C-283.754 1058.71 -266.081 1054.17 -245.574 1049.69C-222.524 1044.66 -199.167 1041.15 -175.656 1039.18C-162.203 1038.09 -148.703 1037.69 -135.21 1038C-120.929 1038.39 -106.687 1039.7 -92.5732 1041.91C-63.6425 1046.32 -34.7115 1055.41 -6.21863 1066.69C22.2743 1077.98 50.123 1092.04 78.7963 1106.32C107.469 1120.59 136.967 1135.12 168.964 1147.36C201.41 1159.71 234.759 1169.54 268.714 1176.78C302.597 1183.94 336.934 1188.75 371.479 1191.18C404.151 1193.51 436.942 1193.65 469.633 1191.61C498.676 1189.78 527.604 1186.42 556.297 1181.57C582.626 1177.08 606.507 1172.34 627.271 1167.58C648.036 1162.81 666.069 1158.51 680.805 1154.9L726.868 1143.36L738.821 1140.24C746.55 1138.24 757.988 1135.09 772.518 1131.59C779.757 1129.71 787.821 1127.75 796.58 1125.64C805.339 1123.53 814.871 1121.34 825.176 1119.07C845.528 1114.59 868.533 1109.74 894.012 1105.88C919.491 1102.01 947.365 1098.51 977.095 1096.19C1006.82 1093.87 1038.46 1092.82 1071.18 1093C1139.38 1093.54 1207.43 1099.49 1274.7 1110.77C1340.86 1121.84 1406.18 1137.38 1470.23 1157.3C1530.83 1176 1585.42 1196.77 1631.19 1215.78C1676.97 1234.79 1713.97 1252.03 1739.99 1264.16L1770.1 1278.2C1777.14 1281.4 1781.03 1282.94 1781.36 1282.63C1781.7 1282.32 1778.42 1280.06 1772.01 1276.35C1765.6 1272.64 1756.09 1267.1 1743.67 1260.43C1718.86 1247.08 1682.74 1228.58 1637.66 1208.21C1585.39 1184.64 1531.94 1163.79 1477.52 1145.73C1412.96 1124.27 1346.97 1107.39 1280.03 1095.21C1211.23 1082.64 1141.52 1075.63 1071.59 1074.24C1037.87 1073.62 1005.15 1074.24 974.287 1076.38C943.424 1078.52 914.338 1081.53 887.829 1085.5C861.32 1089.47 837.284 1094 816.288 1098.38C805.828 1100.65 795.987 1102.74 787.048 1104.85C778.108 1106.96 769.839 1108.84 762.471 1110.64C747.632 1114.2 736.142 1117.11 728.259 1119.07L716.228 1122.11L670.603 1134.04C656.073 1137.75 638.478 1142.28 618.177 1146.92C597.877 1151.55 574.897 1156.63 549.624 1161.22C522.344 1166.14 494.828 1169.64 467.186 1171.73C436.165 1174.01 405.028 1174.23 373.978 1172.4C340.953 1170.48 308.098 1166.31 275.644 1159.9C242.939 1153.45 210.772 1144.52 179.423 1133.19C148.508 1121.98 119.217 1108.2 90.183 1094.54C61.149 1080.89 32.1925 1067.11 2.35999 1055.72C-27.4725 1044.33 -58.4644 1035.52 -89.4303 1031.48C-104.495 1029.45 -119.674 1028.39 -134.875 1028.31C-148.997 1028.31 -163.109 1029.07 -177.15 1030.58C-201.168 1033.19 -224.971 1037.49 -248.382 1043.46C-268.992 1048.61 -286.407 1053.76 -300.602 1058.42C-328.966 1067.54 -344.552 1073.68 -344.166 1074.32Z" fill="url(#paint34_radial)"/>
</g>
<path style="mix-blend-mode:screen" opacity="0.45" d="M1750.03 189.418C1750.03 189.418 1473.12 297.258 1144.93 270.852C816.751 244.445 671.247 156.854 457.086 162.96C242.926 169.066 14.7512 325.802 -167.876 317.533C-350.504 309.263 -287.722 46.8244 -287.722 46.8244L-179.289 183.183C-179.289 183.183 154.588 -58.9806 494.184 -36.6448C833.78 -14.3091 930.207 129.34 1184.53 171.59C1438.85 213.84 1758.48 105.974 1758.48 105.974L1750.03 189.418Z" fill="url(#paint35_radial)"/>
</g>
<rect x="-1" width="1443" height="1304" fill="#170A31" fill-opacity="0.7"/>
<defs>
<filter id="filter0_f" x="488.935" y="-168.458" width="1517.12" height="1517.12" filterUnits="userSpaceOnUse" color-interpolation-filters="sRGB">
<feFlood flood-opacity="0" result="BackgroundImageFix"/>
<feBlend mode="normal" in="SourceGraphic" in2="BackgroundImageFix" result="shape"/>
<feGaussianBlur stdDeviation="150" result="effect1_foregroundBlur"/>
</filter>
<filter id="filter1_f" x="764.231" y="-358.608" width="1219.65" height="1219.65" filterUnits="userSpaceOnUse" color-interpolation-filters="sRGB">
<feFlood flood-opacity="0" result="BackgroundImageFix"/>
<feBlend mode="normal" in="SourceGraphic" in2="BackgroundImageFix" result="shape"/>
<feGaussianBlur stdDeviation="150" result="effect1_foregroundBlur"/>
</filter>
<filter id="filter2_f" x="1021.14" y="-59.48" width="1225.48" height="1287.3" filterUnits="userSpaceOnUse" color-interpolation-filters="sRGB">
<feFlood flood-opacity="0" result="BackgroundImageFix"/>
<feBlend mode="normal" in="SourceGraphic" in2="BackgroundImageFix" result="shape"/>
<feGaussianBlur stdDeviation="162.5" result="effect1_foregroundBlur"/>
</filter>
<filter id="filter3_f" x="404.058" y="-236.493" width="1178.09" height="1024.4" filterUnits="userSpaceOnUse" color-interpolation-filters="sRGB">
<feFlood flood-opacity="0" result="BackgroundImageFix"/>
<feBlend mode="normal" in="SourceGraphic" in2="BackgroundImageFix" result="shape"/>
<feGaussianBlur stdDeviation="150" result="effect1_foregroundBlur"/>
</filter>
<radialGradient id="paint0_radial" cx="0" cy="0" r="1" gradientUnits="userSpaceOnUse" gradientTransform="translate(746.665 624.437) rotate(180) scale(966.079 644.053)">
<stop offset="0.06" stop-color="#071256"/>
<stop offset="0.96" stop-color="#030A2B"/>
</radialGradient>
<radialGradient id="paint1_radial" cx="0" cy="0" r="1" gradientUnits="userSpaceOnUse" gradientTransform="translate(1344.23 549.778) rotate(180) scale(578.617 578.618)">
<stop offset="0.06" stop-color="#0A1656"/>
<stop offset="0.89" stop-color="#4478AF"/>
</radialGradient>
<radialGradient id="paint2_radial" cx="0" cy="0" r="1" gradientUnits="userSpaceOnUse" gradientTransform="translate(-8621.3 3252.28) rotate(180) scale(3298.12 3298.12)">
<stop offset="0.06" stop-color="#0A1656"/>
<stop offset="0.89" stop-color="#4478AF"/>
</radialGradient>
<radialGradient id="paint3_radial" cx="0" cy="0" r="1" gradientUnits="userSpaceOnUse" gradientTransform="translate(-8824.8 3393.85) rotate(180) scale(3298.12 3298.11)">
<stop offset="0.06" stop-color="#0A1656"/>
<stop offset="0.89" stop-color="#4478AF"/>
</radialGradient>
<radialGradient id="paint4_radial" cx="0" cy="0" r="1" gradientUnits="userSpaceOnUse" gradientTransform="translate(-8723.4 3494.47) rotate(180) scale(3298.12 3298.12)">
<stop offset="0.06" stop-color="#0A1656"/>
<stop offset="0.89" stop-color="#4478AF"/>
</radialGradient>
<radialGradient id="paint5_radial" cx="0" cy="0" r="1" gradientUnits="userSpaceOnUse" gradientTransform="translate(-3749.47 -8524.73) rotate(4.57392) scale(1755.4 1531.39)">
<stop offset="0.06" stop-color="#0A1656"/>
<stop offset="0.89" stop-color="#4478AF"/>
</radialGradient>
<radialGradient id="paint6_radial" cx="0" cy="0" r="1" gradientUnits="userSpaceOnUse" gradientTransform="translate(-8591.4 5883.17) rotate(180) scale(1742.26)">
<stop offset="0.06" stop-color="#0A1656"/>
<stop offset="0.89" stop-color="#4478AF"/>
</radialGradient>
<radialGradient id="paint7_radial" cx="0" cy="0" r="1" gradientUnits="userSpaceOnUse" gradientTransform="translate(-8630.33 5641.49) rotate(180) scale(1738.16 1742.35)">
<stop offset="0.06" stop-color="#0A1656"/>
<stop offset="0.89" stop-color="#4478AF"/>
</radialGradient>
<radialGradient id="paint8_radial" cx="0" cy="0" r="1" gradientUnits="userSpaceOnUse" gradientTransform="translate(-58983.1 22340.8) rotate(180) scale(928.196 746.31)">
<stop offset="0.06" stop-color="#0A1656"/>
<stop offset="0.89" stop-color="#4478AF"/>
</radialGradient>
<radialGradient id="paint9_radial" cx="0" cy="0" r="1" gradientUnits="userSpaceOnUse" gradientTransform="translate(4593.05 -5622.44) rotate(-45) scale(1230.14)">
<stop offset="0.06" stop-color="#0A1656"/>
<stop offset="0.89" stop-color="#4478AF"/>
</radialGradient>
<radialGradient id="paint10_radial" cx="0" cy="0" r="1" gradientUnits="userSpaceOnUse" gradientTransform="translate(4713.07 -5492.1) rotate(-45) scale(1234.34 1230.15)">
<stop offset="0.06" stop-color="#0A1656"/>
<stop offset="0.89" stop-color="#4478AF"/>
</radialGradient>
<radialGradient id="paint11_radial" cx="0" cy="0" r="1" gradientUnits="userSpaceOnUse" gradientTransform="translate(57176.4 -59663.7) rotate(-45) scale(1075.68 666.288)">
<stop offset="0.06" stop-color="#0A1656"/>
<stop offset="0.89" stop-color="#4478AF"/>
</radialGradient>
<radialGradient id="paint12_radial" cx="0" cy="0" r="1" gradientUnits="userSpaceOnUse" gradientTransform="translate(15121.2 -9742.05) rotate(-45.0001) scale(3316.53 3321.27)">
<stop offset="0.06" stop-color="#0A1656"/>
<stop offset="0.89" stop-color="#4478AF"/>
</radialGradient>
<radialGradient id="paint13_radial" cx="0" cy="0" r="1" gradientUnits="userSpaceOnUse" gradientTransform="translate(10323.4 -7006.22) rotate(-45) scale(2314.47)">
<stop offset="0.06" stop-color="#0A1656"/>
<stop offset="0.89" stop-color="#4478AF"/>
</radialGradient>
<radialGradient id="paint14_radial" cx="0" cy="0" r="1" gradientUnits="userSpaceOnUse" gradientTransform="translate(10130.4 -7013.57) rotate(-45) scale(2343.39)">
<stop offset="0.06" stop-color="#0A1656"/>
<stop offset="0.89" stop-color="#4478AF"/>
</radialGradient>
<radialGradient id="paint15_radial" cx="0" cy="0" r="1" gradientUnits="userSpaceOnUse" gradientTransform="translate(112257 -75788.7) rotate(-45) scale(1994.93 1242.88)">
<stop offset="0.06" stop-color="#0A1656"/>
<stop offset="0.89" stop-color="#4478AF"/>
</radialGradient>
<radialGradient id="paint16_radial" cx="0" cy="0" r="1" gradientUnits="userSpaceOnUse" gradientTransform="translate(-8441.72 2354.81) rotate(180) scale(39.5332 39.6052)">
<stop offset="0.06" stop-color="#E47E99"/>
<stop offset="0.53" stop-color="#E43D99"/>
<stop offset="0.99" stop-color="#B30058"/>
</radialGradient>
<radialGradient id="paint17_radial" cx="0" cy="0" r="1" gradientUnits="userSpaceOnUse" gradientTransform="translate(-8178.79 660.718) rotate(180) scale(39.6049 39.5335)">
<stop offset="0.06" stop-color="#E47E99"/>
<stop offset="0.53" stop-color="#E43D99"/>
<stop offset="0.99" stop-color="#B30058"/>
</radialGradient>
<radialGradient id="paint18_radial" cx="0" cy="0" r="1" gradientUnits="userSpaceOnUse" gradientTransform="translate(-10391.8 1915.56) rotate(180) scale(39.6049 39.6051)">
<stop offset="0.06" stop-color="#E47E99"/>
<stop offset="0.53" stop-color="#E43D99"/>
<stop offset="0.99" stop-color="#B30058"/>
</radialGradient>
<radialGradient id="paint19_radial" cx="0" cy="0" r="1" gradientUnits="userSpaceOnUse" gradientTransform="translate(-82231.5 6102.1) rotate(180) scale(1743.62 1387.19)">
<stop offset="0.06" stop-color="#E47E99"/>
<stop offset="0.53" stop-color="#E43D99"/>
<stop offset="0.99" stop-color="#B30058"/>
</radialGradient>
<radialGradient id="paint20_radial" cx="0" cy="0" r="1" gradientUnits="userSpaceOnUse" gradientTransform="translate(-63011.2 8316.11) rotate(180) scale(1757.45 1392.9)">
<stop offset="0.06" stop-color="#E47E99"/>
<stop offset="0.53" stop-color="#E43D99"/>
<stop offset="0.99" stop-color="#B30058"/>
</radialGradient>
<radialGradient id="paint21_radial" cx="0" cy="0" r="1" gradientUnits="userSpaceOnUse" gradientTransform="translate(-6256.4 3797.12) rotate(180) scale(16.0963 16.0964)">
<stop offset="0.06" stop-color="#E47E99"/>
<stop offset="0.53" stop-color="#E43D99"/>
<stop offset="0.99" stop-color="#B30058"/>
</radialGradient>
<radialGradient id="paint22_radial" cx="0" cy="0" r="1" gradientUnits="userSpaceOnUse" gradientTransform="translate(-67136.3 19467) rotate(180) scale(1091.86 838.513)">
<stop offset="0.06" stop-color="#E47E99"/>
<stop offset="0.53" stop-color="#E43D99"/>
<stop offset="0.99" stop-color="#B30058"/>
</radialGradient>
<radialGradient id="paint23_radial" cx="0" cy="0" r="1" gradientUnits="userSpaceOnUse" gradientTransform="translate(-8208.19 6497.52) rotate(180) scale(42.4402 42.4398)">
<stop offset="0.06" stop-color="#E47E99"/>
<stop offset="0.53" stop-color="#E43D99"/>
<stop offset="0.99" stop-color="#B30058"/>
</radialGradient>
<radialGradient id="paint24_radial" cx="0" cy="0" r="1" gradientUnits="userSpaceOnUse" gradientTransform="translate(-8409.78 3809.17) rotate(180) scale(30.6126)">
<stop offset="0.06" stop-color="#E47E99"/>
<stop offset="0.53" stop-color="#E43D99"/>
<stop offset="0.99" stop-color="#B30058"/>
</radialGradient>
<radialGradient id="paint25_radial" cx="0" cy="0" r="1" gradientUnits="userSpaceOnUse" gradientTransform="translate(-8249.01 5226.01) rotate(180) scale(30.3613 30.3611)">
<stop offset="0.06" stop-color="#E47E99"/>
<stop offset="0.53" stop-color="#E43D99"/>
<stop offset="0.99" stop-color="#B30058"/>
</radialGradient>
<radialGradient id="paint26_radial" cx="0" cy="0" r="1" gradientUnits="userSpaceOnUse" gradientTransform="translate(-7439.77 5029.13) rotate(180) scale(30.3613 30.3611)">
<stop offset="0.06" stop-color="#E47E99"/>
<stop offset="0.53" stop-color="#E43D99"/>
<stop offset="0.99" stop-color="#B30058"/>
</radialGradient>
<radialGradient id="paint27_radial" cx="0" cy="0" r="1" gradientUnits="userSpaceOnUse" gradientTransform="translate(-6834.11 2840.51) rotate(180) scale(30.3613)">
<stop offset="0.06" stop-color="#E47E99"/>
<stop offset="0.53" stop-color="#E43D99"/>
<stop offset="0.99" stop-color="#B30058"/>
</radialGradient>
<radialGradient id="paint28_radial" cx="0" cy="0" r="1" gradientUnits="userSpaceOnUse" gradientTransform="translate(-83706.6 24875.1) rotate(180) scale(2095.55 1494.64)">
<stop offset="0.06" stop-color="#E47E99"/>
<stop offset="0.53" stop-color="#E43D99"/>
<stop offset="0.99" stop-color="#B30058"/>
</radialGradient>
<radialGradient id="paint29_radial" cx="0" cy="0" r="1" gradientUnits="userSpaceOnUse" gradientTransform="translate(1104.17 233.573) rotate(180) scale(669.583 478.273)">
<stop offset="0.04" stop-color="#030A2B"/>
<stop offset="0.94" stop-color="#071256"/>
</radialGradient>
<radialGradient id="paint30_radial" cx="0" cy="0" r="1" gradientUnits="userSpaceOnUse" gradientTransform="translate(-725970 -14279.8) scale(418852 132399)">
<stop offset="0.04" stop-color="#030A2B"/>
<stop offset="0.94" stop-color="#071256"/>
</radialGradient>
<radialGradient id="paint31_radial" cx="0" cy="0" r="1" gradientUnits="userSpaceOnUse" gradientTransform="translate(-2.92791e+06 150430) rotate(180) scale(794305 94773.8)">
<stop offset="0.06" stop-color="#071256"/>
<stop offset="0.96" stop-color="#030A2B"/>
</radialGradient>
<radialGradient id="paint32_radial" cx="0" cy="0" r="1" gradientUnits="userSpaceOnUse" gradientTransform="translate(-2.71566e+06 69168.7) rotate(180) scale(643360 55549.9)">
<stop offset="0.06" stop-color="#071256"/>
<stop offset="0.96" stop-color="#030A2B"/>
</radialGradient>
<radialGradient id="paint33_radial" cx="0" cy="0" r="1" gradientUnits="userSpaceOnUse" gradientTransform="translate(-2.9051e+06 36098.1) rotate(180) scale(694858 47328.2)">
<stop offset="0.06" stop-color="#071256"/>
<stop offset="0.96" stop-color="#030A2B"/>
</radialGradient>
<radialGradient id="paint34_radial" cx="0" cy="0" r="1" gradientUnits="userSpaceOnUse" gradientTransform="translate(-2.71894e+06 117051) rotate(180) scale(627801 53662.8)">
<stop offset="0.06" stop-color="#071256"/>
<stop offset="0.96" stop-color="#030A2B"/>
</radialGradient>
<radialGradient id="paint35_radial" cx="0" cy="0" r="1" gradientUnits="userSpaceOnUse" gradientTransform="translate(-2.62146e+06 22016.5) rotate(180) scale(596443 73734.8)">
<stop offset="0.06" stop-color="#071256"/>
<stop offset="0.96" stop-color="#030A2B"/>
</radialGradient>
</defs>
</svg>
