<?xml version="1.0" standalone="no"?>
<!DOCTYPE svg PUBLIC "-//W3C//DTD SVG 20010904//EN"
 "http://www.w3.org/TR/2001/REC-SVG-20010904/DTD/svg10.dtd">
<svg version="1.0" xmlns="http://www.w3.org/2000/svg"
 width="1440.000000pt" height="900.000000pt" viewBox="0 0 1440.000000 900.000000"
 preserveAspectRatio="xMidYMid meet">

<g transform="translate(0.000000,900.000000) scale(0.100000,-0.100000)"
fill="#000000" stroke="none">
<path d="M0 4500 l0 -4500 7200 0 7200 0 0 4500 0 4500 -7200 0 -7200 0 0
-4500z m11293 957 c189 -50 372 -155 512 -294 108 -107 140 -156 354 -541 183
-326 191 -344 176 -365 -8 -12 -15 -29 -15 -37 0 -53 -206 -276 -400 -433 -91
-73 -96 -76 -109 -57 -16 24 -54 26 -75 4 -22 -22 -20 -41 2 -21 20 19 48 22
56 8 23 -36 -370 -273 -597 -362 -65 -25 -90 -29 -145 -27 -69 3 -88 19 -36
29 l29 6 -28 7 c-17 5 -33 4 -42 -4 -21 -17 -19 -67 3 -79 15 -9 14 -11 -8
-19 -63 -24 -85 -24 -95 0 -14 32 -69 37 -85 8 -6 -11 -9 -29 -5 -39 5 -15 -5
-20 -67 -34 -152 -33 -140 -36 -172 35 -16 35 -39 85 -52 112 -30 62 -31 102
-4 111 26 8 26 12 -15 101 -40 86 -42 99 -17 113 45 26 45 25 13 96 -17 37
-31 79 -31 92 0 13 -20 59 -44 101 -102 175 -154 347 -163 532 -16 321 99 626
320 852 78 81 92 88 235 119 130 28 370 21 505 -14z m1556 -1192 c-97 -469
166 -944 619 -1117 l83 -32 -68 -69 c-89 -90 -289 -260 -435 -370 -495 -370
-1200 -747 -1795 -961 -100 -36 -105 -37 -165 -25 -90 16 -268 14 -377 -6
-170 -30 -322 -86 -457 -170 -67 -42 -76 -45 -140 -45 l-69 0 -53 96 c-30 52
-52 97 -50 99 1 1 50 26 108 55 396 198 656 384 724 517 40 81 31 124 -31 139
-49 13 -187 -3 -272 -32 -116 -38 -345 -152 -540 -268 -89 -54 -167 -94 -171
-89 -11 11 -140 244 -140 252 0 4 16 33 36 64 30 48 47 63 97 89 263 131 508
385 599 619 l23 59 35 -8 c82 -17 237 2 438 54 503 130 1010 419 1367 779 135
137 225 265 225 322 0 16 19 26 104 52 90 28 319 90 322 87 1 -1 -7 -41 -17
-91z m168 -177 c-3 -7 -5 -2 -5 12 0 14 2 19 5 13 2 -7 2 -19 0 -25z m-3910
-2460 l51 -93 -49 -48 c-54 -53 -83 -101 -75 -123 7 -18 72 -18 151 0 33 8 60
14 61 13 0 -1 13 -24 28 -50 34 -59 31 -74 -29 -150 -42 -53 -162 -153 -172
-143 -2 2 5 21 16 42 28 52 28 131 -1 187 l-21 42 -13 -61 c-32 -156 -128
-263 -236 -264 l-38 0 32 44 c35 51 48 128 28 166 -12 22 -13 21 -42 -31 -53
-98 -129 -159 -228 -185 -80 -20 -94 -14 -43 20 38 25 62 60 50 72 -2 2 -32
-14 -66 -37 -77 -52 -191 -89 -272 -89 -57 0 -59 1 -49 20 6 12 41 52 77 91
51 54 85 79 149 111 79 39 97 58 53 58 -11 0 -36 -7 -56 -15 -20 -8 -38 -13
-40 -11 -10 10 74 89 117 111 58 29 157 49 215 43 51 -6 56 3 19 37 -36 33
-87 48 -145 43 -27 -3 -49 -3 -49 0 0 17 58 76 93 94 58 31 187 31 270 1 72
-27 76 -12 13 52 -44 44 -92 64 -151 65 -29 1 -28 2 19 26 58 31 150 52 226
53 l55 1 52 -92z"/>
<path d="M11000 5113 c-36 -21 -99 -72 -141 -113 -143 -141 -145 -238 -8 -482
70 -124 132 -199 194 -231 101 -52 340 1 414 93 42 53 51 80 51 160 0 78 -35
211 -79 298 -63 125 -172 242 -263 281 -81 36 -97 35 -168 -6z m129 -46 c113
-68 223 -201 276 -334 40 -101 38 -110 -9 -41 -92 135 -229 259 -367 333 l-60
32 38 26 c43 29 47 29 122 -16z"/>
<path d="M11285 4223 c-27 -19 -90 -55 -140 -78 -79 -38 -129 -55 -248 -83
-42 -10 -28 -27 20 -25 56 2 159 36 258 86 101 50 197 115 190 128 -10 15 -27
9 -80 -28z"/>
<path d="M11326 3939 c-3 -8 -12 -50 -21 -94 -10 -44 -19 -90 -22 -102 -4 -19
1 -22 52 -33 31 -6 59 -9 63 -5 4 3 16 55 27 115 l21 108 -35 7 c-20 3 -46 9
-58 12 -14 3 -25 0 -27 -8z"/>
<path d="M10708 3772 c-48 -21 -90 -41 -93 -44 -5 -4 11 -48 31 -86 2 -4 187
77 195 86 10 10 -21 82 -35 82 -6 -1 -50 -18 -98 -38z"/>
<path d="M10875 3600 c10 -11 20 -20 23 -20 3 0 -3 9 -13 20 -10 11 -20 20
-23 20 -3 0 3 -9 13 -20z"/>
<path d="M10894 3611 c7 -11 46 -35 46 -28 0 3 -12 12 -26 22 -15 9 -23 12
-20 6z"/>
<path d="M10967 3569 c-9 -5 -22 -7 -27 -4 -6 3 -10 4 -10 1 0 -3 10 -10 21
-17 17 -8 20 -8 14 1 -5 9 -1 10 16 5 19 -5 21 -4 9 5 -12 9 -12 11 -1 8 8 -2
15 -12 17 -22 2 -12 -2 -16 -12 -12 -10 4 -12 2 -8 -6 5 -8 2 -9 -9 -5 -30 11
-18 -2 16 -18 30 -15 31 -15 12 1 -20 16 -20 16 3 9 19 -5 22 -3 22 19 0 15
-8 30 -19 36 -23 12 -22 12 -44 -1z"/>
<path d="M10920 3526 c0 -3 9 -10 20 -16 11 -6 20 -8 20 -6 0 3 -9 10 -20 16
-11 6 -20 8 -20 6z"/>
<path d="M10976 3488 c5 -8 1 -9 -12 -4 -14 5 -16 4 -7 -4 7 -8 17 -9 28 -3
16 9 16 10 1 16 -12 5 -15 3 -10 -5z"/>
<path d="M11740 3294 c-99 -53 -141 -86 -70 -56 25 11 83 38 130 60 70 33 80
40 55 41 -18 0 -65 -18 -115 -45z"/>
<path d="M11742 3243 c-90 -47 -162 -87 -159 -89 4 -4 334 142 377 167 10 6 4
8 -20 7 -23 -1 -93 -31 -198 -85z"/>
<path d="M11777 3207 c-119 -61 -214 -113 -212 -115 5 -5 455 201 455 209 0
24 -51 5 -243 -94z"/>
<path d="M11802 3168 c-128 -66 -231 -122 -229 -124 3 -3 485 213 497 223 5 4
-21 23 -30 22 -3 0 -110 -55 -238 -121z"/>
<path d="M11818 3122 c-147 -75 -265 -138 -264 -139 3 -3 507 226 542 245 13
7 13 10 2 20 -10 8 -75 -21 -280 -126z"/>
<path d="M11857 3086 c-141 -73 -260 -136 -265 -141 -4 -4 -2 -6 3 -3 6 3 132
60 282 128 216 98 270 127 261 137 -6 7 -13 13 -17 12 -3 0 -122 -60 -264
-133z"/>
<path d="M12208 3174 c-16 -8 -28 -17 -28 -19 0 -4 72 24 79 31 11 10 -27 2
-51 -12z"/>
<path d="M11948 3012 c-191 -98 -350 -181 -354 -185 -4 -3 166 72 376 168 211
96 385 173 387 171 2 -1 -169 -91 -379 -199 -211 -108 -380 -197 -377 -197 3
0 183 81 399 180 217 99 390 176 385 171 -6 -6 -181 -98 -390 -206 -209 -108
-373 -194 -365 -192 8 3 188 85 399 181 212 97 386 174 387 173 2 -2 -167 -91
-375 -198 -209 -106 -378 -195 -377 -196 1 -2 175 76 386 172 211 97 384 174
386 172 2 -1 -167 -90 -375 -197 -209 -107 -378 -196 -377 -197 1 -2 172 75
379 169 374 171 377 173 383 206 9 46 -20 116 -60 147 -65 49 -61 51 -438
-143z"/>
<path d="M11878 3036 c-391 -201 -386 -201 52 -1 129 59 237 109 238 110 2 2
0 10 -5 18 -6 12 -60 -11 -285 -127z"/>
<path d="M12073 2777 c-193 -100 -350 -183 -349 -184 3 -4 500 223 591 269 64
33 125 82 114 92 -2 2 -162 -78 -356 -177z"/>
<path d="M12545 2838 c-11 -6 -23 -16 -27 -21 -3 -6 -19 -11 -35 -13 -15 -2
-35 -11 -43 -21 -8 -10 -23 -17 -33 -15 -16 3 -15 -1 5 -42 12 -25 26 -46 30
-46 11 0 10 18 -3 41 -8 16 -7 25 7 40 24 27 42 24 62 -11 27 -48 44 -37 21
14 -9 20 -9 29 1 41 20 24 48 18 66 -16 11 -22 19 -28 26 -21 7 7 5 21 -9 44
-21 37 -38 43 -68 26z"/>
<path d="M12303 2720 c-22 -13 -33 -27 -33 -42 0 -51 36 -65 91 -38 31 16 39
26 39 48 0 54 -40 67 -97 32z m71 -23 c9 -15 7 -21 -8 -33 -48 -35 -102 1 -56
38 27 22 48 20 64 -5z"/>
<path d="M12153 2646 c-24 -21 -26 -27 -18 -52 12 -34 42 -42 86 -23 29 12 56
45 45 56 -3 3 -18 -6 -32 -20 -32 -32 -59 -35 -74 -8 -8 16 -6 23 12 35 12 9
35 16 50 16 16 0 28 5 28 10 0 20 -69 10 -97 -14z"/>
<path d="M12025 2620 c3 -5 10 -10 16 -10 5 0 9 5 9 10 0 6 -7 10 -16 10 -8 0
-12 -4 -9 -10z"/>
<path d="M12455 2610 c-8 -13 3 -30 18 -30 8 0 7 3 -2 9 -7 5 -10 14 -7 20 4
6 5 11 2 11 -3 0 -8 -4 -11 -10z"/>
<path d="M12491 2604 c0 -11 3 -14 6 -6 3 7 2 16 -1 19 -3 4 -6 -2 -5 -13z"/>
<path d="M12040 2595 c0 -15 42 -85 50 -85 14 0 13 5 -10 50 -17 34 -40 53
-40 35z"/>
<path d="M11947 2561 c-15 -29 -14 -31 3 -31 10 0 21 -9 25 -19 10 -33 30 -43
59 -30 33 15 34 31 2 23 -18 -4 -27 -1 -36 15 -12 24 -6 41 16 41 8 0 14 5 14
11 0 7 -10 9 -27 5 -16 -5 -29 -3 -33 4 -5 8 -13 1 -23 -19z"/>
<path d="M12120 2540 c0 -5 5 -10 10 -10 6 0 10 5 10 10 0 6 -4 10 -10 10 -5
0 -10 -4 -10 -10z"/>
<path d="M11879 2511 c-24 -18 -30 -21 -49 -21 -5 0 0 -20 12 -45 12 -25 26
-45 30 -45 11 0 10 18 -2 41 -13 24 1 55 30 64 11 3 20 11 20 16 0 14 -15 11
-41 -10z"/>
<path d="M12279 2521 c8 -5 10 -14 6 -21 -5 -9 -4 -11 3 -6 18 11 14 36 -5 36
-14 0 -15 -2 -4 -9z"/>
<path d="M12190 2490 c0 -12 30 -33 37 -26 3 3 1 6 -6 6 -7 0 -11 6 -8 13 3 8
-1 14 -9 14 -8 0 -14 -4 -14 -7z"/>
<path d="M11728 2442 c-27 -16 -37 -32 -20 -32 4 0 18 7 30 16 12 8 32 14 45
12 18 -3 13 -8 -26 -26 -40 -18 -48 -26 -45 -44 4 -32 39 -34 75 -4 17 14 33
23 36 19 15 -15 18 30 3 52 -20 30 -58 33 -98 7z m72 -48 c-21 -24 -51 -37
-62 -26 -12 12 28 42 55 42 17 0 17 -2 7 -16z"/>
<path d="M11630 2435 c0 -2 12 -29 27 -60 38 -77 59 -73 26 5 -15 33 -32 60
-40 60 -7 0 -13 -2 -13 -5z"/>
<path d="M12035 2409 c-4 -6 -5 -12 -2 -15 2 -3 7 2 10 11 7 17 1 20 -8 4z"/>
<path d="M12063 2395 c0 -8 4 -12 9 -9 4 3 8 9 8 15 0 5 -4 9 -8 9 -5 0 -9 -7
-9 -15z"/>
<path d="M11560 2361 c-40 -21 -54 -61 -22 -61 11 0 36 7 55 15 22 9 38 11 42
5 7 -11 -46 -40 -75 -40 -11 0 -20 -4 -20 -10 0 -16 38 -11 80 10 26 13 40 27
40 40 0 28 -13 32 -60 15 -57 -20 -70 -18 -41 5 13 11 34 20 47 20 13 0 24 5
24 10 0 16 -32 12 -70 -9z"/>
<path d="M11917 2331 c-3 -13 -1 -18 9 -14 7 2 10 11 7 19 -7 19 -10 18 -16
-5z"/>
<path d="M11844 2301 c4 -7 -2 -15 -16 -20 -15 -7 -17 -10 -7 -10 23 -1 44 25
28 35 -8 4 -9 3 -5 -5z"/>
<path d="M11706 2251 c-4 -5 3 -7 14 -4 23 6 26 13 6 13 -8 0 -17 -4 -20 -9z"/>
</g>
</svg>
